# Blender v2.67 (sub 0) OBJ File: ''
# www.blender.org
o Circle.001
v -0.100000 0.707107 0.707107
v -0.100000 0.831470 0.555570
v -0.100000 0.766890 0.512419
v -0.100000 0.652186 0.652186
v -0.100000 0.512419 0.766890
v -0.100000 0.555570 0.831470
v -0.100000 0.382683 0.923880
v -0.100000 0.352960 0.852122
v -0.100000 0.179938 0.904608
v -0.100000 0.352960 0.852122
v -0.260000 0.352960 0.852122
v -0.099999 0.923880 0.382683
v -0.100000 0.852122 0.352960
v 0.060000 0.707107 0.707107
v 0.060000 0.652186 0.652186
v 0.060000 0.766890 0.512419
v 0.060000 0.831470 0.555570
v 0.060000 0.555570 0.831470
v 0.060000 0.512419 0.766890
v 0.060000 0.382683 0.923880
v 0.060000 0.352960 0.852122
v 0.220001 0.923880 0.382683
v 0.220000 0.852122 0.352960
v 0.060001 0.904608 0.179938
v 0.060001 0.980785 0.195090
v 0.060000 0.852122 0.352960
v 0.060001 0.923880 0.382683
v -0.099999 0.904608 0.179938
v -0.100000 0.852122 0.352960
v 0.060000 0.852122 0.352960
v 0.060001 0.904608 0.179938
v 0.060000 0.179938 0.904608
v 0.060000 0.352960 0.852122
v -0.100000 0.831470 0.555570
v 0.060000 0.831470 0.555570
v 0.060001 0.923880 0.382683
v -0.099999 0.923880 0.382683
v -0.100000 0.766890 0.512419
v -0.100000 0.652186 0.652186
v 0.060000 0.652186 0.652186
v 0.060000 0.766890 0.512419
v -0.100000 0.555570 0.831470
v 0.060000 0.555570 0.831470
v 0.060000 0.707107 0.707107
v -0.100000 0.707107 0.707107
v -0.100000 0.512419 0.766890
v 0.060000 0.512419 0.766890
v 0.060001 0.980785 0.195090
v -0.099999 0.980785 0.195090
v -0.100000 0.195090 0.980785
v 0.060000 0.195090 0.980785
v 0.060000 0.382683 0.923880
v -0.100000 0.382683 0.923880
v -0.099999 0.904608 0.179938
v 0.060001 0.904608 0.179938
v 0.060001 0.980785 0.195090
v -0.099999 0.980785 0.195090
v 0.060000 0.179938 0.904608
v -0.100000 0.179938 0.904608
v -0.100000 0.195090 0.980785
v 0.060000 0.195090 0.980785
v 0.220000 0.352960 0.852122
v 0.220000 0.852122 0.352960
v -0.100000 0.195090 0.980785
v -0.260000 0.382683 0.923880
v -0.260000 0.352960 0.852122
v -0.100000 0.179938 0.904608
v -0.100000 0.352960 0.852122
v -0.260000 0.352960 0.852122
v -0.260000 0.382683 0.923880
v -0.100000 0.382683 0.923880
v -0.260000 0.382683 0.923880
v -0.099999 0.923880 0.382683
v -0.259999 0.923880 0.382683
v -0.260000 0.852122 0.352960
v -0.100000 0.852122 0.352960
v -0.259999 0.923880 0.382683
v -0.099999 0.980785 0.195090
v -0.099999 0.904608 0.179938
v -0.260000 0.852122 0.352960
v 0.060000 0.195090 0.980785
v 0.060000 0.179938 0.904608
v 0.220000 0.352960 0.852122
v 0.220000 0.382683 0.923880
v 0.060000 0.382683 0.923880
v 0.220000 0.382683 0.923880
v 0.220000 0.352960 0.852122
v 0.060000 0.352960 0.852122
v -0.260000 0.852122 0.352960
v 0.060000 0.852122 0.352960
v 0.220000 0.852122 0.352960
v 0.220001 0.923880 0.382683
v 0.060001 0.923880 0.382683
v 0.220000 0.382683 0.923880
v 0.220001 0.923880 0.382683
v -0.259999 0.923880 0.382683
v -0.099999 0.707108 -0.707105
v -0.100000 0.555572 -0.831469
v -0.100000 0.512421 -0.766889
v -0.099999 0.652187 -0.652185
v -0.099999 0.831471 -0.555569
v -0.099999 0.766891 -0.512418
v -0.099999 0.923880 -0.382681
v -0.099999 0.852123 -0.352959
v -0.099999 0.904609 -0.179936
v -0.099999 0.852123 -0.352959
v -0.259999 0.852123 -0.352959
v -0.100000 0.382685 -0.923879
v -0.100000 0.352962 -0.852122
v 0.060001 0.707108 -0.707105
v 0.060001 0.652187 -0.652185
v 0.060000 0.512421 -0.766889
v 0.060000 0.555572 -0.831469
v 0.060001 0.831471 -0.555569
v 0.060001 0.766891 -0.512418
v 0.060001 0.923880 -0.382681
v 0.060001 0.852123 -0.352959
v 0.220000 0.382685 -0.923879
v 0.220000 0.352962 -0.852122
v 0.060000 0.179939 -0.904608
v 0.060000 0.195092 -0.980785
v 0.060000 0.352962 -0.852122
v 0.060000 0.382685 -0.923879
v -0.100000 0.179939 -0.904608
v -0.100000 0.352962 -0.852122
v 0.060000 0.352962 -0.852122
v 0.060000 0.179939 -0.904608
v 0.060001 0.904609 -0.179936
v 0.060001 0.852123 -0.352959
v -0.100000 0.555572 -0.831469
v 0.060000 0.555572 -0.831469
v 0.060000 0.382685 -0.923879
v -0.100000 0.382685 -0.923879
v -0.100000 0.512421 -0.766889
v -0.099999 0.652187 -0.652185
v 0.060001 0.652187 -0.652185
v 0.060000 0.512421 -0.766889
v -0.099999 0.831471 -0.555569
v 0.060001 0.831471 -0.555569
v 0.060001 0.707108 -0.707105
v -0.099999 0.707108 -0.707105
v -0.099999 0.766891 -0.512418
v 0.060001 0.766891 -0.512418
v 0.060000 0.195092 -0.980785
v -0.100000 0.195092 -0.980785
v -0.099999 0.980786 -0.195088
v 0.060001 0.980786 -0.195088
v 0.060001 0.923880 -0.382681
v -0.099999 0.923880 -0.382681
v -0.100000 0.179939 -0.904608
v -0.100000 0.195092 -0.980785
v 0.060000 0.195092 -0.980785
v 0.060000 0.179939 -0.904608
v 0.060001 0.904609 -0.179936
v -0.099999 0.904609 -0.179936
v -0.099999 0.980786 -0.195088
v 0.060001 0.980786 -0.195088
v 0.220001 0.852123 -0.352959
v 0.220000 0.352962 -0.852122
v -0.099999 0.980786 -0.195088
v -0.259999 0.923880 -0.382681
v -0.259999 0.852123 -0.352959
v -0.099999 0.904609 -0.179936
v -0.099999 0.852123 -0.352959
v -0.259999 0.852123 -0.352959
v -0.259999 0.923880 -0.382681
v -0.099999 0.923880 -0.382681
v -0.259999 0.923880 -0.382681
v -0.100000 0.382685 -0.923879
v -0.100000 0.352962 -0.852122
v -0.260000 0.352962 -0.852122
v -0.260000 0.382685 -0.923879
v -0.260000 0.382685 -0.923879
v -0.100000 0.195092 -0.980785
v -0.100000 0.179939 -0.904608
v -0.260000 0.352962 -0.852122
v 0.060001 0.980786 -0.195088
v 0.060001 0.904609 -0.179936
v 0.220001 0.852123 -0.352959
v 0.220001 0.923880 -0.382681
v 0.060001 0.923880 -0.382681
v 0.220001 0.923880 -0.382681
v 0.220001 0.852123 -0.352959
v 0.060001 0.852123 -0.352959
v -0.260000 0.352962 -0.852122
v 0.060000 0.352962 -0.852122
v 0.060000 0.382685 -0.923879
v 0.220000 0.382685 -0.923879
v 0.220000 0.352962 -0.852122
v 0.220001 0.923880 -0.382681
v 0.220000 0.382685 -0.923879
v -0.260000 0.382685 -0.923879
v -0.100000 -0.707106 -0.707108
v -0.100000 -0.831469 -0.555571
v -0.100000 -0.766889 -0.512420
v -0.100000 -0.652185 -0.652187
v -0.100000 -0.555569 -0.831470
v -0.100000 -0.512418 -0.766891
v -0.100000 -0.382682 -0.923880
v -0.100000 -0.352959 -0.852123
v -0.100000 -0.179936 -0.904609
v -0.100000 -0.352959 -0.852123
v -0.260000 -0.352959 -0.852123
v -0.100001 -0.923879 -0.382684
v -0.100000 -0.852122 -0.352962
v 0.060000 -0.707106 -0.707108
v 0.060000 -0.652185 -0.652187
v 0.060000 -0.766889 -0.512420
v 0.060000 -0.831469 -0.555571
v 0.060000 -0.555569 -0.831470
v 0.060000 -0.512418 -0.766891
v 0.060000 -0.382682 -0.923880
v 0.060000 -0.352959 -0.852123
v 0.219999 -0.923879 -0.382684
v 0.220000 -0.852122 -0.352962
v 0.059999 -0.904608 -0.179939
v 0.059999 -0.980785 -0.195091
v 0.060000 -0.852122 -0.352962
v 0.059999 -0.923879 -0.382684
v -0.100001 -0.904608 -0.179939
v -0.100000 -0.852122 -0.352962
v 0.060000 -0.852122 -0.352962
v 0.059999 -0.904608 -0.179939
v 0.060000 -0.179936 -0.904609
v 0.060000 -0.352959 -0.852123
v -0.100000 -0.831469 -0.555571
v 0.060000 -0.831469 -0.555571
v 0.059999 -0.923879 -0.382684
v -0.100001 -0.923879 -0.382684
v -0.100000 -0.766889 -0.512420
v -0.100000 -0.652185 -0.652187
v 0.060000 -0.652185 -0.652187
v 0.060000 -0.766889 -0.512420
v -0.100000 -0.555569 -0.831470
v 0.060000 -0.555569 -0.831470
v 0.060000 -0.707106 -0.707108
v -0.100000 -0.707106 -0.707108
v -0.100000 -0.512418 -0.766891
v 0.060000 -0.512418 -0.766891
v 0.059999 -0.980785 -0.195091
v -0.100001 -0.980785 -0.195091
v -0.100000 -0.195089 -0.980786
v 0.060000 -0.195089 -0.980786
v 0.060000 -0.382682 -0.923880
v -0.100000 -0.382682 -0.923880
v -0.100001 -0.904608 -0.179939
v 0.059999 -0.904608 -0.179939
v 0.059999 -0.980785 -0.195091
v -0.100001 -0.980785 -0.195091
v 0.060000 -0.179936 -0.904609
v 0.060000 -0.195089 -0.980786
v -0.100000 -0.195089 -0.980786
v -0.100000 -0.179936 -0.904609
v 0.220000 -0.352959 -0.852123
v 0.220000 -0.852122 -0.352962
v -0.100000 -0.195089 -0.980786
v -0.260000 -0.382682 -0.923880
v -0.260000 -0.352959 -0.852123
v -0.100000 -0.179936 -0.904609
v -0.100000 -0.352959 -0.852123
v -0.100000 -0.382682 -0.923880
v -0.260000 -0.382682 -0.923880
v -0.260000 -0.352959 -0.852123
v -0.260000 -0.382682 -0.923880
v -0.100001 -0.923879 -0.382684
v -0.260001 -0.923879 -0.382684
v -0.260000 -0.852122 -0.352962
v -0.100000 -0.852122 -0.352962
v -0.260001 -0.923879 -0.382684
v -0.100001 -0.980785 -0.195091
v -0.100001 -0.904608 -0.179939
v -0.260000 -0.852122 -0.352962
v 0.060000 -0.195089 -0.980786
v 0.060000 -0.179936 -0.904609
v 0.220000 -0.352959 -0.852123
v 0.220000 -0.382682 -0.923880
v 0.060000 -0.382682 -0.923880
v 0.060000 -0.352959 -0.852123
v 0.220000 -0.352959 -0.852123
v 0.220000 -0.382682 -0.923880
v -0.260000 -0.852122 -0.352962
v 0.060000 -0.852122 -0.352962
v 0.220000 -0.852122 -0.352962
v 0.219999 -0.923879 -0.382684
v 0.059999 -0.923879 -0.382684
v 0.220000 -0.382682 -0.923880
v 0.219999 -0.923879 -0.382684
v -0.260001 -0.923879 -0.382684
v -0.100001 -0.707107 0.707106
v -0.100000 -0.555571 0.831469
v -0.100000 -0.512420 0.766890
v -0.100001 -0.652187 0.652186
v -0.100001 -0.831470 0.555570
v -0.100001 -0.766890 0.512419
v -0.100001 -0.923880 0.382683
v -0.100001 -0.852123 0.352960
v -0.100001 -0.904608 0.179937
v -0.100001 -0.852123 0.352960
v -0.260001 -0.852123 0.352960
v -0.100000 -0.382684 0.923879
v -0.100000 -0.352961 0.852122
v 0.059999 -0.707107 0.707106
v 0.059999 -0.652187 0.652186
v 0.060000 -0.512420 0.766890
v 0.060000 -0.555571 0.831469
v 0.059999 -0.831470 0.555570
v 0.059999 -0.766890 0.512419
v 0.059999 -0.923880 0.382683
v 0.059999 -0.852123 0.352960
v 0.220000 -0.382684 0.923879
v 0.220000 -0.352961 0.852122
v 0.060000 -0.179938 0.904608
v 0.060000 -0.195091 0.980785
v 0.060000 -0.352961 0.852122
v 0.060000 -0.382684 0.923879
v -0.100000 -0.179938 0.904608
v -0.100000 -0.352961 0.852122
v 0.060000 -0.352961 0.852122
v 0.060000 -0.179938 0.904608
v 0.059999 -0.904608 0.179937
v 0.059999 -0.852123 0.352960
v -0.100000 -0.555571 0.831469
v 0.060000 -0.555571 0.831469
v 0.060000 -0.382684 0.923879
v -0.100000 -0.382684 0.923879
v -0.100000 -0.512420 0.766890
v -0.100001 -0.652187 0.652186
v 0.059999 -0.652187 0.652186
v 0.060000 -0.512420 0.766890
v -0.100001 -0.831470 0.555570
v 0.059999 -0.831470 0.555570
v 0.059999 -0.707107 0.707106
v -0.100001 -0.707107 0.707106
v -0.100001 -0.766890 0.512419
v 0.059999 -0.766890 0.512419
v 0.060000 -0.195091 0.980785
v -0.100000 -0.195091 0.980785
v -0.100001 -0.980785 0.195089
v 0.059999 -0.980785 0.195089
v 0.059999 -0.923880 0.382683
v -0.100001 -0.923880 0.382683
v -0.100000 -0.179938 0.904608
v -0.100000 -0.195091 0.980785
v 0.060000 -0.195091 0.980785
v 0.060000 -0.179938 0.904608
v 0.059999 -0.904608 0.179937
v -0.100001 -0.904608 0.179937
v -0.100001 -0.980785 0.195089
v 0.059999 -0.980785 0.195089
v 0.219999 -0.852123 0.352960
v 0.220000 -0.352961 0.852122
v -0.100001 -0.980785 0.195089
v -0.260001 -0.923880 0.382683
v -0.260001 -0.852123 0.352960
v -0.100001 -0.904608 0.179937
v -0.100001 -0.852123 0.352960
v -0.100001 -0.923880 0.382683
v -0.260001 -0.923880 0.382683
v -0.260001 -0.852123 0.352960
v -0.260001 -0.923880 0.382683
v -0.100000 -0.382684 0.923879
v -0.100000 -0.352961 0.852122
v -0.260000 -0.352961 0.852122
v -0.260000 -0.382684 0.923879
v -0.260000 -0.382684 0.923879
v -0.100000 -0.195091 0.980785
v -0.100000 -0.179938 0.904608
v -0.260000 -0.352961 0.852122
v 0.059999 -0.980785 0.195089
v 0.059999 -0.904608 0.179937
v 0.219999 -0.852123 0.352960
v 0.219999 -0.923880 0.382683
v 0.059999 -0.923880 0.382683
v 0.059999 -0.852123 0.352960
v 0.219999 -0.852123 0.352960
v 0.219999 -0.923880 0.382683
v -0.260000 -0.352961 0.852122
v 0.060000 -0.352961 0.852122
v 0.060000 -0.382684 0.923879
v 0.220000 -0.382684 0.923879
v 0.220000 -0.352961 0.852122
v 0.219999 -0.923880 0.382683
v 0.220000 -0.382684 0.923879
v -0.260000 -0.382684 0.923879
vn -1.000000 0.000000 0.000000
vn -0.999969 0.000000 0.000000
vn 0.000000 0.290262 0.956938
vn 0.000000 0.352153 0.935911
vn 1.000000 0.000000 0.000000
vn 0.999969 0.000000 0.000000
vn 0.762230 0.187872 -0.619404
vn 0.000000 0.956938 0.290262
vn 0.000000 0.935911 0.352153
vn 0.000000 0.831446 0.555559
vn 0.000000 0.707083 0.707083
vn 0.000000 0.555559 0.831446
vn 0.000000 -0.195074 0.980773
vn 0.000000 0.980773 -0.195074
vn -0.762230 -0.619404 0.187872
vn 0.000000 0.923856 -0.382672
vn 0.000000 -0.382672 0.923856
vn -0.762230 0.187872 -0.619404
vn 0.762230 -0.619404 0.187872
vn 0.000000 0.956938 -0.290262
vn 0.000000 0.935911 -0.352153
vn 0.762230 -0.619404 -0.187872
vn 0.000000 0.290262 -0.956938
vn 0.000000 0.352153 -0.935911
vn 0.000000 0.555559 -0.831446
vn 0.000000 0.707083 -0.707083
vn 0.000000 0.831446 -0.555559
vn 0.000000 -0.980773 -0.195074
vn 0.000000 -0.195074 -0.980773
vn -0.762230 0.187872 0.619404
vn 0.000000 -0.382672 -0.923856
vn 0.000000 -0.923856 -0.382672
vn -0.762230 -0.619404 -0.187872
vn 0.762230 0.187872 0.619404
vn 0.000000 -0.290262 -0.956938
vn 0.000000 -0.352153 -0.935911
vn 0.762230 -0.187872 0.619404
vn 0.000000 -0.956938 -0.290262
vn 0.000000 -0.935911 -0.352153
vn 0.000000 -0.831446 -0.555559
vn 0.000000 -0.707083 -0.707083
vn 0.000000 -0.555559 -0.831446
vn 0.000000 0.195074 -0.980773
vn -0.762230 0.619404 -0.187872
vn 0.000000 0.382672 -0.923856
vn -0.762230 -0.187872 0.619404
vn 0.762230 0.619404 -0.187872
vn 0.000000 -0.956938 0.290262
vn 0.000000 -0.935911 0.352153
vn 0.762230 0.619404 0.187872
vn 0.000000 -0.290262 0.956938
vn 0.000000 -0.352153 0.935911
vn 0.000000 -0.555559 0.831446
vn 0.000000 -0.707083 0.707083
vn 0.000000 -0.831446 0.555559
vn 0.000000 0.980773 0.195074
vn 0.000000 0.195074 0.980773
vn -0.762230 -0.187872 -0.619404
vn 0.000000 0.923856 0.382672
vn -0.762230 0.619404 0.187872
vn 0.762230 -0.187872 -0.619404
s 1
f 1//1 2//1 3//1 4//2
f 6//1 1//1 4//2 5//1
f 7//1 6//1 5//1 8//1
f 9//3 10//4 11//3
f 2//1 12//1 13//1 3//1
f 14//5 15//6 16//5 17//5
f 18//5 19//5 15//6 14//5
f 20//5 21//5 19//5 18//5
f 22//7 23//7 24//7 25//7
f 17//5 16//5 26//5 27//5
f 28//8 29//9 30//9 31//8
f 10//4 9//3 32//3 33//4
f 34//10 35//10 36//9 37//9
f 38//10 39//11 40//11 41//10
f 42//12 43//12 44//11 45//11
f 46//12 10//4 33//4 47//12
f 37//9 36//9 48//8 49//8
f 50//3 51//3 52//4 53//4
f 54//13 55//13 56//13 57//13
f 29//9 38//10 41//10 30//9
f 45//11 44//11 35//10 34//10
f 39//11 46//12 47//12 40//11
f 58//14 59//14 60//14 61//14
f 53//4 52//4 43//12 42//12
f 33//4 32//3 62//3
f 31//8 30//9 63//8
f 64//15 65//15 66//15 67//15
f 68//16 69//16 70//16 71//16
f 53//4 72//3 50//3
f 73//17 74//17 75//17 76//17
f 77//18 78//18 79//18 80//18
f 81//19 82//19 83//19 84//19
f 85//16 86//16 87//16 88//16
f 29//9 28//8 89//8
f 90//17 91//17 92//17 93//17
f 51//3 94//3 52//4
f 36//9 95//8 48//8
f 49//8 96//8 37//9
f 97//2 98//1 99//1 100//1
f 101//1 97//2 100//1 102//1
f 103//1 101//1 102//1 104//1
f 105//20 106//21 107//20
f 98//1 108//1 109//1 99//1
f 110//6 111//5 112//5 113//5
f 114//5 115//5 111//5 110//6
f 116//5 117//5 115//5 114//5
f 118//22 119//22 120//22 121//22
f 113//5 112//5 122//5 123//5
f 124//23 125//24 126//24 127//23
f 106//21 105//20 128//20 129//21
f 130//25 131//25 132//24 133//24
f 134//25 135//26 136//26 137//25
f 138//27 139//27 140//26 141//26
f 142//27 106//21 129//21 143//27
f 133//24 132//24 144//23 145//23
f 146//20 147//20 148//21 149//21
f 150//28 151//28 152//28 153//28
f 125//24 134//25 137//25 126//24
f 141//26 140//26 131//25 130//25
f 135//26 142//27 143//27 136//26
f 154//29 155//29 156//29 157//29
f 149//21 148//21 139//27 138//27
f 129//21 128//20 158//20
f 127//23 126//24 159//23
f 160//30 161//30 162//30 163//30
f 164//31 165//31 166//31 167//31
f 149//21 168//20 146//20
f 169//32 170//32 171//32 172//32
f 173//33 174//33 175//33 176//33
f 177//34 178//34 179//34 180//34
f 181//31 182//31 183//31 184//31
f 125//24 124//23 185//23
f 186//32 187//32 188//32 189//32
f 147//20 190//20 148//21
f 132//24 191//23 144//23
f 145//23 192//23 133//24
f 193//1 194//1 195//1 196//1
f 197//1 193//1 196//1 198//1
f 199//1 197//1 198//1 200//1
f 201//35 202//36 203//35
f 194//1 204//1 205//2 195//1
f 206//5 207//5 208//5 209//5
f 210//5 211//5 207//5 206//5
f 212//5 213//5 211//5 210//5
f 214//37 215//37 216//37 217//37
f 209//5 208//5 218//6 219//5
f 220//38 221//39 222//39 223//38
f 202//36 201//35 224//35 225//36
f 226//40 227//40 228//39 229//39
f 230//40 231//41 232//41 233//40
f 234//42 235//42 236//41 237//41
f 238//42 202//36 225//36 239//42
f 229//39 228//39 240//38 241//38
f 242//35 243//35 244//36 245//36
f 246//43 247//43 248//43 249//43
f 221//39 230//40 233//40 222//39
f 237//41 236//41 227//40 226//40
f 231//41 238//42 239//42 232//41
f 250//14 251//14 252//14 253//14
f 245//36 244//36 235//42 234//42
f 225//36 224//35 254//35
f 223//38 222//39 255//38
f 256//44 257//44 258//44 259//44
f 260//16 261//16 262//16 263//16
f 245//36 264//35 242//35
f 265//45 266//45 267//45 268//45
f 269//46 270//46 271//46 272//46
f 273//47 274//47 275//47 276//47
f 277//16 278//16 279//16 280//16
f 221//39 220//38 281//38
f 282//45 283//45 284//45 285//45
f 243//35 286//35 244//36
f 228//39 287//38 240//38
f 241//38 288//38 229//39
f 289//1 290//1 291//1 292//1
f 293//1 289//1 292//1 294//1
f 295//2 293//1 294//1 296//1
f 297//48 298//49 299//48
f 290//1 300//2 301//1 291//1
f 302//5 303//5 304//5 305//5
f 306//5 307//5 303//5 302//5
f 308//6 309//5 307//5 306//5
f 310//50 311//50 312//50 313//50
f 305//5 304//5 314//5 315//6
f 316//51 317//52 318//52 319//51
f 298//49 297//48 320//48 321//49
f 322//53 323//53 324//52 325//52
f 326//53 327//54 328//54 329//53
f 330//55 331//55 332//54 333//54
f 334//55 298//49 321//49 335//55
f 325//52 324//52 336//51 337//51
f 338//48 339//48 340//49 341//49
f 342//56 343//56 344//56 345//56
f 317//52 326//53 329//53 318//52
f 333//54 332//54 323//53 322//53
f 327//54 334//55 335//55 328//54
f 346//57 347//57 348//57 349//57
f 341//49 340//49 331//55 330//55
f 321//49 320//48 350//48
f 319//51 318//52 351//51
f 352//58 353//58 354//58 355//58
f 356//31 357//31 358//31 359//31
f 341//49 360//48 338//48
f 361//59 362//59 363//59 364//59
f 365//60 366//60 367//60 368//60
f 369//61 370//61 371//61 372//61
f 373//31 374//31 375//31 376//31
f 317//52 316//51 377//51
f 378//59 379//59 380//59 381//59
f 339//48 382//48 340//49
f 324//52 383//51 336//51
f 337//51 384//51 325//52
