# Blender v2.67 (sub 0) OBJ File: ''
# www.blender.org
o Cylinder
v 0.800000 0.100000 -0.100000
v 0.800000 -0.100000 -0.100000
v 0.800000 0.000000 -0.050000
v 0.800000 -0.000000 0.050000
v 0.800000 -0.100000 0.100000
v 0.800000 0.100000 0.100000
v 0.800000 -0.043302 -0.025000
v 0.800000 -0.043301 0.025000
v 0.800000 0.043301 0.025000
v 0.800000 0.043301 -0.025000
v 1.000000 0.100000 -0.100000
v 1.000000 -0.100000 -0.100000
v 1.000000 0.100000 0.100000
v 1.000000 -0.100000 0.100000
v 0.000000 -0.000000 0.050000
v 0.000000 -0.043301 -0.025000
v 0.000000 0.000000 -0.050000
v 0.000000 0.043302 0.025000
v 0.000000 0.043302 -0.025000
v 0.000000 -0.043301 0.025000
v 0.000000 0.043302 0.025000
v 0.000000 0.043302 -0.025000
v 0.800000 -0.100000 -0.100000
v 0.800000 -0.100000 -0.100000
v 1.000000 -0.100000 -0.100000
v 1.000000 -0.100000 -0.100000
v 0.000000 -0.000000 0.050000
v 0.000000 -0.043301 0.025000
v 0.000000 -0.043301 -0.025000
v 0.800000 -0.100000 0.100000
v 0.800000 -0.100000 0.100000
v 0.800000 0.100000 0.100000
v 0.800000 0.100000 0.100000
v 0.800000 0.100000 -0.100000
v 0.800000 0.100000 -0.100000
v 0.800000 0.043301 0.025000
v 0.800000 0.043301 -0.025000
v 1.000000 -0.100000 0.100000
v 1.000000 -0.100000 0.100000
v 0.800000 0.000000 -0.050000
v 1.000000 0.100000 -0.100000
v 1.000000 0.100000 -0.100000
v 0.800000 -0.043302 -0.025000
v 0.800000 -0.043301 0.025000
v 0.000000 0.000000 -0.050000
v 1.000000 0.100000 0.100000
v 1.000000 0.100000 0.100000
v 0.800000 -0.000000 0.050000
vn -1.000000 0.000000 -0.000000
vn 0.000000 0.000000 -1.000000
vn 1.000000 0.000000 -0.000000
vn 0.000000 -0.000000 1.000000
vn -0.000000 -1.000000 -0.000000
vn -0.000000 1.000000 0.000000
vn 0.000000 -0.865993 0.499985
vn 0.000000 -0.866024 -0.499985
vn 0.000000 0.000000 -0.999969
vn 0.000000 0.866024 0.499985
vn 0.000000 0.866024 -0.499985
vn 0.000000 -0.866024 0.499985
s off
f 34//1 23//1 40//1
f 48//1 5//1 32//1
f 7//1 23//1 44//1
f 7//1 40//1 23//1
f 36//1 48//1 32//1
f 10//1 36//1 32//1
f 10//1 34//1 40//1
f 5//1 48//1 44//1
f 41//2 12//2 2//2
f 13//3 38//3 25//3
f 14//4 46//4 6//4
f 24//5 26//5 39//5
f 11//6 1//6 33//6
f 34//1 10//1 32//1
f 35//2 41//2 2//2
f 42//3 13//3 25//3
f 30//4 14//4 6//4
f 31//5 24//5 39//5
f 47//6 11//6 33//6
f 23//1 5//1 44//1
s 1
f 4//4 27//4 8//7
f 16//8 17//9 3//9
f 9//10 21//10 4//4
f 37//11 22//11 9//10
f 28//12 16//8 43//8
f 45//1 29//1 19//1
f 29//1 20//1 19//1
f 20//1 18//1 19//1
f 20//1 15//1 18//1
f 17//9 22//11 37//11
f 21//10 27//4 4//4
f 43//8 16//8 3//9
f 22//11 21//10 9//10
f 27//4 28//12 8//7
f 8//7 28//12 43//8
f 3//9 17//9 37//11
