# Blender v2.67 (sub 0) OBJ File: ''
# www.blender.org
o Cylinder
v 0.000000 -0.043301 -0.025000
v 0.000000 0.000000 -0.050000
v 0.700000 -0.000000 -0.050000
v 0.700000 -0.043302 -0.025000
v 0.000000 -0.043301 0.025000
v 0.000000 0.043302 -0.025000
v 0.700000 -0.000000 0.050000
v 0.000000 0.000000 0.050000
v 0.700000 -0.043301 0.025000
v 0.000000 0.043302 0.025000
v 0.700000 0.043301 0.025000
v 0.700000 0.043301 -0.025000
v 0.700000 0.086603 0.050000
v 1.000000 -0.000000 0.000000
v 0.700000 0.086603 -0.050000
v 0.700000 0.000000 0.100000
v 0.700000 0.000000 -0.100000
v 0.700000 -0.086602 0.050000
v 0.700000 -0.086602 -0.050000
v 0.700000 -0.000000 -0.050000
v 0.700000 0.043301 -0.025000
v 0.700000 -0.086602 0.050000
v 0.700000 -0.086602 -0.050000
v 0.700000 -0.043302 -0.025000
v 0.700000 -0.043301 0.025000
v 0.000000 -0.043301 -0.025000
v 0.000000 -0.043301 0.025000
v 0.700000 0.043301 0.025000
v 0.000000 0.000000 -0.050000
v 0.000000 0.043302 -0.025000
v 0.000000 0.043302 0.025000
v 0.700000 0.000000 -0.100000
v 0.700000 -0.000000 0.050000
v 0.700000 0.086603 0.050000
v 0.700000 0.086603 -0.050000
v 0.000000 0.000000 0.050000
v 0.700000 0.000000 0.100000
vn 0.000000 -0.866024 -0.499985
vn 0.000000 0.000000 -1.000000
vn 0.000000 0.000000 -0.999969
vn 0.000000 0.866024 0.499985
vn 0.000000 0.000000 1.000000
vn 0.000000 -0.866024 0.499985
vn -1.000000 0.000000 0.000000
vn 0.316202 0.821558 0.474319
vn 1.000000 0.000000 0.000000
vn 0.316202 0.821558 -0.474319
vn 0.316202 0.000000 -0.948668
vn 0.316202 -0.821558 -0.474319
vn 0.316202 -0.821558 0.474319
vn 0.316202 0.000000 0.948668
vn 0.000000 0.866024 -0.499985
s 1
f 1//1 29//2 20//3
f 28//4 31//4 33//5
f 5//6 1//1 24//1
f 2//7 26//7 6//7
f 26//7 27//7 6//7
f 27//7 10//7 6//7
f 27//7 8//7 10//7
f 34//8 14//9 15//10
f 17//11 14//9 19//12
f 14//9 17//11 15//10
f 19//12 14//9 18//13
f 16//14 14//9 34//8
f 18//13 14//9 16//14
f 13//7 11//7 37//7
f 21//15 30//15 28//4
f 4//7 23//7 25//7
f 22//7 37//7 7//7
f 3//7 32//7 4//7
f 13//7 35//7 12//7
f 29//2 30//15 21//15
f 12//7 35//7 3//7
f 33//5 36//5 9//6
f 24//1 1//1 20//3
f 9//6 5//6 24//1
f 11//7 7//7 37//7
f 35//7 32//7 3//7
f 25//7 22//7 7//7
f 23//7 22//7 25//7
f 11//7 13//7 12//7
f 20//3 29//2 21//15
f 32//7 23//7 4//7
f 30//15 31//4 28//4
f 31//4 36//5 33//5
f 36//5 5//6 9//6

